<?xml version="1.0" standalone="no"?>
<!DOCTYPE svg PUBLIC "-//W3C//DTD SVG 1.1//EN" "http://www.w3.org/Graphics/SVG/1.1/DTD/svg11.dtd">
<svg xmlns="http://www.w3.org/2000/svg">
<metadata>Copyright (C) 2015 by original authors @ fontello.com</metadata>
<defs>
<font id="electro" horiz-adv-x="1000" >
<font-face font-family="electro" font-weight="400" font-stretch="normal" units-per-em="1000" ascent="850" descent="-150" />
<missing-glyph horiz-adv-x="1000" />
<glyph glyph-name="01" unicode="&#xe800;" d="m733 536h-161v31c0 4-4 8-8 8h-129c-5 0-8-4-8-8v-31h-70v21c0 4-4 8-8 8h-92c-4 0-8-4-8-8v-23c-34-8-59-39-59-75v-258c0-42 34-77 76-77h467c43 0 77 35 77 77v258c0 42-34 77-77 77z m-291 23h115v-23h-115v23z m-177-10h76v-13h-75c0 0-1 0-1 0v13z m529-348c0-34-27-61-61-61h-467c-33 0-61 27-61 61v258c0 34 28 61 61 61h467c34 0 61-27 61-61v-258z m-74 287c-23 0-43-19-43-43 0-23 20-43 43-43 24 0 43 20 43 43 0 24-19 43-43 43z m0-70c-15 0-27 12-27 27s12 28 27 28c16 0 28-13 28-28s-12-27-28-27z m-199 80c-93 0-168-75-168-167 0-93 75-168 168-168s167 75 167 168c0 92-75 167-167 167z m0-319c-84 0-153 68-153 152 0 84 69 152 153 152s152-68 152-152c0-84-68-152-152-152z m0 282c-72 0-131-58-131-130 0-72 59-131 131-131 72 0 130 59 130 131 0 72-58 130-130 130z m0-245c-64 0-116 51-116 115 0 63 52 115 116 115 63 0 115-52 115-115 0-64-52-115-115-115z m-232 238c-12 0-22-10-22-22v-219c0-12 10-22 22-22 13 0 23 10 23 22v219c0 12-10 22-23 22z m7-241c0-4-3-7-7-7-4 0-7 3-7 7v219c0 4 3 7 7 7 4 0 7-3 7-7v-219z m217 212c-4 0-8-3-8-8s4-7 8-7c48 0 87-39 87-87 0-4 3-8 7-8 5 0 8 4 8 8 0 56-46 102-102 102z" horiz-adv-x="1000" />
<glyph glyph-name="02" unicode="&#xe801;" d="m883 132l-66 131c-4 8-11 15-19 20 5 6 9 14 9 23v293c0 17-14 32-30 32h-554c-17 0-31-15-31-32v-293c0-9 4-17 10-23-8-5-16-12-20-20l-66-131c-4-9-4-17 0-23 0 0 0 0 0-1-1-2-1-5 0-7 12-20 33-32 55-32h658c22 0 43 12 55 32 1 3 1 5 0 8 3 6 3 14-1 23z m-675 467c0 9 7 16 15 16h554c8 0 15-7 15-16v-293c0-9-7-17-15-17h-554c-8 0-15 8-15 17v293z m621-514h-658c-13 0-25 5-34 14h726c-9-9-21-14-34-14z m41 32c0-2-3-3-6-3h-729c-3 0-5 1-6 3-1 1-1 5 1 8l66 131c5 10 17 18 27 18h554c9 0 22-8 26-18l66-131c2-3 2-7 1-8z m-636 195h530c4 0 7 4 7 8v266c0 5-3 8-7 8h-530c-4 0-7-3-7-8v-266c0-4 3-8 7-8z m8 267h514v-251h-514v251z m304-365h-103c-18 0-37-7-38-21l-5-35c0-5 1-10 5-14 6-7 18-11 32-11h113c14 0 27 4 33 11 4 4 5 9 5 14l-4 35c-2 14-20 21-38 21z m26-60c-3-3-11-6-22-6h-113c-10 0-18 3-21 6 0 1 0 1 0 2l4 35c0 2 8 8 23 8h103c14 0 22-6 23-8l3-35c0-1 0-1 0-2z m-353 93h559c4 0 8 3 8 7 0 5-4 8-8 8h-559c-4 0-7-3-7-8 0-4 3-7 7-7z m567-8l-575 0c-4 0-7-3-7-7 0-5 3-8 7-8l575 0c4 0 8 3 8 8 0 4-4 7-8 7z m-160 313l-265-177c-3-2-4-7-2-11 2-3 7-4 11-2l264 177c4 3 5 7 3 11-3 3-7 4-11 2z m-220-120l96 65c3 3 5 8 2 11-2 4-7 5-10 2l-97-65c-3-2-4-7-2-11 2-3 7-4 11-2z" horiz-adv-x="1000" />
<glyph glyph-name="03" unicode="&#xe802;" d="m427 298c4 0 8 4 8 8v9h48v-9c0-4 3-8 7-8s8 4 8 8v33c0 4-3 8-8 8s-7-4-7-8v-9h-48v9c0 4-4 8-8 8-4 0-8-4-8-8v-33c0-4 4-8 8-8z m95 2h64c4 0 8 3 8 7 0 5-4 8-8 8h-56v15h56c4 0 8 4 8 8 0 4-4 7-8 7h-64c-4 0-7-3-7-7v-31c0-4 3-7 7-7z m112-70v127c0 5-3 8-7 8h-12v5h12c4 0 7 3 7 8v146c0 4-3 7-7 7h-180c-2 0-4-1-6-2l-74-75c-1-1-2-3-2-5v-79c0-4 3-7 7-7h9v-47h-9c-4 0-7-4-7-8v-133c0-4 3-8 7-8h255c4 0 7 4 7 8v55c0 0 0 0 0 0z m-246 70c4 0 8 4 8 8v62c0 5-4 8-8 8h-8v68l70 70h9v-64c0-4 4-8 8-8 4 0 8 4 8 8v64h15v-64c0-4 4-8 8-8s8 4 8 8v64h15v-64c0-4 4-8 8-8s8 4 8 8v64h15v-64c0-4 4-8 8-8s8 4 8 8v64h16v-64c0-4 3-8 7-8s8 4 8 8v64h20v-131h-11c-4 0-8-3-8-7v-21c0-4 4-7 8-7h11v-109c-36 12-81 19-129 19-40 0-78-5-110-13v53h8z m-8-117v48c32 9 70 14 110 14 48 0 95-8 129-21v-41h-239z" horiz-adv-x="1000" />
<glyph glyph-name="04" unicode="&#xe803;" d="m617 637h-235c-26 0-48-21-48-47v-481c0-26 22-48 48-48h235c27 0 48 22 48 48v481c0 26-21 47-48 47z m33-528c0-18-15-32-33-32h-235c-18 0-32 14-32 32v44h300v-44z m0 60h-300v383h300v-383z m0 399h-300v22c0 18 14 32 32 32h235c18 0 33-14 33-32v-22z m-153-486c18 0 32 14 32 32 0 17-14 32-32 32-17 0-32-15-32-32 0-18 15-32 32-32z m0 48c10 0 17-7 17-16 0-10-7-17-17-17-9 0-16 7-16 17 0 9 7 16 16 16z m47 471h-89c-4 0-7-3-7-7 0-5 3-8 7-8h89c4 0 8 3 8 8 0 4-4 7-8 7z m-154-377l227 147c4 2 5 7 2 10-2 4-7 5-10 3l-227-147c-3-2-4-7-2-10 2-4 7-5 10-3z m37 70l50 33c3 2 4 7 2 11-2 3-7 4-11 2l-50-33c-3-2-4-7-2-10 2-4 7-5 11-3z" horiz-adv-x="1000" />
<glyph glyph-name="05" unicode="&#xe804;" d="m786 182c0 0-70 71-93 94-8 12-11 31-9 59 0 0 0 0 0 1 3 41-8 81-31 115 3 4 4 9 4 13 0 10-4 19-11 26l-3 3c-7 7-16 11-26 11-4 0-9-1-13-4-34 23-74 34-115 31 0 0-1 0-1 0-27-2-47 1-59 9-23 23-94 93-94 93-10 10-28 10-38 0l-81-81c-10-10-10-27 0-37 0 0 71-72 93-94 8-13 11-32 9-60 0 0 0 0 0 0-4-53 16-105 53-143 35-34 81-53 130-53 4 0 8 0 13 0 0 0 0 0 1 0 27 2 46-1 59-9 22-22 94-93 94-93 5-5 11-7 19-7s13 2 18 7l81 81c5 5 8 12 8 19 0 7-3 14-8 19z m-181 72c0 0 0 0 0 0l-30 30c-3 3-7 3-10 0-3-3-3-8 0-11l29-29c0-1 0-1 0-1-25-23-58-35-93-35-34 0-66 12-91 34 1 0 2 1 3 2l30 29c3 3 3 8 0 11-3 3-8 3-11 0l-30-30c-1-1-2-2-2-3-25 26-39 61-39 97 0 35 12 67 35 93 0-1 1-1 1-2l30-30c2-1 4-2 6-2s4 1 5 2c3 3 3 8 0 11l-30 30c0 0-1 1-2 1 26 24 60 38 95 38 35 0 68-13 94-36 0-1 0-1-1-1l-29-29c-3-3-3-8 0-11 1-2 3-3 5-3 2 0 4 1 5 3l30 29c0 1 0 1 1 1 47-53 47-135-1-188z m12 235c6 0 11-3 15-7l3-3c4-4 7-9 7-15 0-2-1-5-3-7l-11-11-29 29 11 11c2 2 5 3 7 3z m-390 53l81 80c2 2 5 4 8 4s6-2 8-4c0 0 63-62 89-88l-97-98c-27 27-89 90-89 90-4 4-4 11 0 16z m303-361c-5 0-10 0-16-1 0 0 0 0-1 0-4 0-8 0-12 0-45 0-87 17-119 49-34 35-52 83-49 131 0 1 0 1 0 1 2 28 0 48-8 63l50 50 50 50c15-7 36-10 63-8 0 0 1 0 1 0 36 3 72-6 102-26l-1-1c-1-1-2-2-2-3l-5-5c-24 15-52 23-82 23-41 0-80-16-110-46-29-29-46-68-46-110 0-41 17-81 46-110 30-29 69-46 110-46s81 17 110 46c52 52 60 132 23 192l9 9c19-30 29-67 26-103 0 0 0-1 0-1-2-27 1-48 8-63l-100-100c-12 6-27 9-47 9z m245-26l-81-81c-4-4-11-4-15 0 0 0-63 62-90 89l49 48 49 49c26-26 88-89 88-89 2-2 3-5 3-8 0-3-1-6-3-8z m-276 312c0 0 0 0 0 0-4 0-7-4-7-8l1-103h-60c-4 0-8-4-8-8s4-8 8-8h68c2 0 4 1 6 3 1 1 2 3 2 5l-2 111c0 4-3 8-8 8z" horiz-adv-x="1000" />
<glyph glyph-name="06" unicode="&#xe805;" d="m433 399c0 63-51 115-114 115s-114-52-114-115c0-63 51-114 114-114s114 51 114 114z m-213 0c0 55 45 99 99 99s99-44 99-99c0-54-44-98-99-98s-99 44-99 98z m234 184h-54c-14 0-25-11-25-25 0-14 11-25 25-25h54c14 0 25 11 25 25 0 14-11 25-25 25z m0-34h-54c-5 0-10 4-10 9 0 5 5 9 10 9h54c5 0 9-4 9-9 0-5-4-9-9-9z m-82-352h-87c-4 0-8-4-8-8 0-4 4-8 8-8h87c4 0 7 4 7 8 0 4-3 8-7 8z m0-28h-87c-4 0-8-3-8-8 0-4 4-7 8-7h87c4 0 7 3 7 7 0 5-3 8-7 8z m448 394h-68c0 0 0 0 0 0h-187c-24 0-44-19-44-43v-8h-11v54c0 24-20 44-44 44h-180c-24 0-44-20-44-44v-43c-42-25-69-71-69-124 0-52 27-98 69-124v-141c0-24 20-44 44-44h180c24 0 44 20 44 44v241h11v-3c0-24 20-44 44-44h187c0 0 0 0 0 0 0 0 0 0 0 0h68c4 0 7 3 7 8v220c0 4-3 7-7 7z m-632-164c0 73 59 131 131 131 72 0 131-58 131-131 0-72-59-131-131-131-72 0-131 59-131 131z m306 105v-121-249c0-16-13-29-28-29h-180c-16 0-29 13-29 29v133c19-9 40-14 62-14 81 0 146 66 146 146 0 81-65 147-146 147-22 0-43-5-62-14v34c0 16 13 28 29 28h180c15 0 28-12 28-28v-62z m27-113h-11v105h11v-105z m44-48c-15 0-28 13-28 29v11 121 16c0 15 13 28 28 28h175c-10-29-16-65-16-102 0-37 6-73 16-103h-175z m247 0h-55c-11 29-17 65-17 103 0 37 6 73 17 102h55v-205z m-429 47c0-5 3-8 8-8s7 3 7 8c0 50-41 91-91 91-5 0-8-3-8-7s3-8 8-8c42 0 76-34 76-76z" horiz-adv-x="1000" />
<glyph glyph-name="07" unicode="&#xe806;" d="m531 597h-62c-34 0-62-28-62-62v-146-136c0-26 17-49 40-58v-85c0-4 3-8 7-8h91c5 0 8 4 8 8v85c23 9 39 32 39 58v180 102c0 34-27 62-61 62z m7-479h-10v57c0 4-3 8-8 8s-7-4-7-8v-57h-7v57c0 4-3 8-7 8-5 0-8-4-8-8v-57h-6v57c0 4-4 8-8 8s-8-4-8-8v-57h-7v74c2-1 5-1 7-1h62c2 0 4 0 7 1v-74z m39 135c0-26-21-46-46-46h-62c-26 0-46 20-46 46v130c1 1 2 1 3 2 2 0 3 1 5 2 2 0 4 1 6 2 2 1 3 1 4 2 3 1 5 2 8 3 1 1 2 1 3 2 3 1 7 3 10 5 11 5 22 10 33 14 21 9 41 15 61 15 3 0 7 0 10 0 0-1 1-1 2-1 3 0 6-1 9-1 0 0 0 0 0 0v-175z m0 190c0 0-1 0-2 1-2 0-4 0-7 1 0 0-1 0-2 0-3 0-7 0-10 0-15 0-29-3-44-7-11-4-21-8-32-12 0 0-1-1-1-1-8-3-16-7-23-10 0 0 0 0 0 0-5-3-10-5-15-7-1-1-2-1-3-2-5-2-10-4-15-6 0 0 0 0 0 0v135c0 26 20 46 46 46h62c25 0 46-20 46-46v-92z" horiz-adv-x="1000" />
<glyph glyph-name="08" unicode="&#xe807;" d="m817 635h-635c-22 0-39-18-39-40v-409c0-21 17-39 39-39h259v-47c-47-3-89-10-120-20-4-1-6-5-5-9 2-4 6-6 10-5 31 10 74 16 122 19 0 0 1 0 1 0 0 0 0 0 1 0 16 1 32 2 49 2 18 0 34-1 50-2 1 0 1 0 1 0 0 0 1 0 1 0 48-3 91-9 122-19 1 0 2-1 2-1 4 0 7 3 8 6 1 4-1 8-5 9-31 10-73 17-120 20v47h259c22 0 39 18 39 39v409c0 22-17 40-39 40z m-274-534c-14 1-29 1-44 1-14 0-29 0-43-1v46h87v-46z m298 85c0-13-11-24-24-24h-635c-13 0-24 11-24 24v409c0 14 11 24 24 24h635c13 0 24-10 24-24v-409z m-25 417h-632c-4 0-7-4-7-8v-403c0-4 3-8 7-8h632c4 0 7 4 7 8v403c0 4-3 8-7 8z m-8-403h-616v387h616v-387z m-514 49l419 270c3 2 5 7 2 10-2 4-7 5-10 3l-419-270c-3-2-5-7-2-10 2-4 7-5 10-3z m29 63l173 111c3 2 4 7 2 11-2 3-7 4-10 2l-174-111c-3-3-4-7-2-11 2-4 7-5 11-2z" horiz-adv-x="1000" />
<glyph glyph-name="09" unicode="&#xe808;" d="m742 448h-234c0 0 0 1 0 1v64c0 4-3 7-8 7s-7-3-7-7v-64c0 0 0-1 0-1h-24-18-22-18-27-125c-24 0-44-20-44-44v-180c0-25 20-44 44-44h292v0h15v0h106v0h15v0h55c24 0 43 19 43 44v180c0 24-19 44-43 44z m28-224c0-16-13-29-28-29h-63-120-300c-16 0-28 13-28 29v180c0 15 12 28 28 28h161c0 0 0 0 0 0h17c0 0 0 0 0 0h5c0 0 0 0 0 0h18c0 0 0 0 0 0h282c15 0 28-13 28-28v-180z m-180 49h-180c-13 0-24-11-24-24 0-14 11-25 24-25h180c14 0 25 11 25 25 0 13-11 24-25 24z m0-34h-180c-5 0-9 4-9 10 0 5 4 9 9 9h180c5 0 10-4 10-9 0-6-5-10-10-10z m-263 164h-34c-14 0-25-12-25-25 0-14 11-25 25-25h34c14 0 25 11 25 25 0 13-11 25-25 25z m0-35h-34c-5 0-9 5-9 10 0 5 4 9 9 9h34c5 0 9-4 9-9 0-5-4-10-9-10z m61-15h34c14 0 25 11 25 25 0 13-11 25-25 25h-34c-13 0-25-12-25-25 0-14 12-25 25-25z m0 34h34c5 0 10-4 10-9 0-5-5-10-10-10h-34c-5 0-9 5-9 10 0 5 4 9 9 9z m95-34h34c14 0 25 11 25 25 0 13-11 25-25 25h-34c-13 0-24-12-24-25 0-14 11-25 24-25z m0 34h34c5 0 10-4 10-9 0-5-5-10-10-10h-34c-5 0-9 5-9 10 0 5 4 9 9 9z m129 16h-34c-13 0-24-12-24-25 0-14 11-25 24-25h34c14 0 25 11 25 25 0 13-11 25-25 25z m0-35h-34c-5 0-9 5-9 10 0 5 4 9 9 9h34c6 0 10-4 10-9 0-5-4-10-10-10z m96 35h-34c-14 0-25-12-25-25 0-14 11-25 25-25h34c13 0 24 11 24 25 0 13-11 25-24 25z m0-35h-34c-6 0-10 5-10 10 0 5 4 9 10 9h34c5 0 9-4 9-9 0-5-4-10-9-10z m-381-30h-34c-14 0-25-11-25-24 0-14 11-25 25-25h34c14 0 25 11 25 25 0 13-11 24-25 24z m0-34h-34c-5 0-9 4-9 10 0 5 4 9 9 9h34c5 0 9-4 9-9 0-6-4-10-9-10z m95-15c14 0 25 11 25 25 0 13-11 24-25 24h-34c-13 0-25-11-25-24 0-14 12-25 25-25h34z m-43 25c0 5 4 9 9 9h34c5 0 10-4 10-9 0-6-5-10-10-10h-34c-5 0-9 4-9 10z m104-25h34c14 0 25 11 25 25 0 13-11 24-25 24h-34c-13 0-24-11-24-24 0-14 11-25 24-25z m0 34h34c5 0 10-4 10-9 0-6-5-10-10-10h-34c-5 0-9 4-9 10 0 5 4 9 9 9z m129 15h-34c-13 0-24-11-24-24 0-14 11-25 24-25h34c14 0 25 11 25 25 0 13-11 24-25 24z m0-34h-34c-5 0-9 4-9 10 0 5 4 9 9 9h34c6 0 10-4 10-9 0-6-4-10-10-10z m96 34h-34c-14 0-25-11-25-24 0-14 11-25 25-25h34c13 0 24 11 24 25 0 13-11 24-24 24z m0-34h-34c-6 0-10 4-10 10 0 5 4 9 10 9h34c5 0 9-4 9-9 0-6-4-10-9-10z" horiz-adv-x="1000" />
<glyph glyph-name="10" unicode="&#xe809;" d="m325 545h-231c-5 0-8-4-8-8v-374c0-5 3-8 8-8h231c4 0 7 3 7 8v374c0 4-3 8-7 8z m-8-375h-216v258h36c4 0 8 4 8 8s-4 7-8 7h-36v11h36c4 0 8 3 8 7s-4 8-8 8h-36v10h36c4 0 8 3 8 8 0 4-4 7-8 7h-36v35h216v-359z m-209 106c0-56 45-102 101-102 56 0 101 46 101 102 0 55-45 101-101 101-56 0-101-46-101-101z m187 0c0-48-38-86-86-86s-86 38-86 86c0 47 39 86 86 86s86-39 86-86z m-121 0c0-20 16-35 35-35 19 0 35 15 35 35 0 19-16 35-35 35-19 0-35-16-35-35z m55 0c0-11-9-20-20-20s-20 9-20 20c0 10 9 19 20 19s20-9 20-19z m-17 127c28 0 52 23 52 52 0 29-24 52-52 52-29 0-53-23-53-52 0-29 24-52 53-52z m0 89c20 0 37-17 37-37 0-20-17-37-37-37-21 0-37 17-37 37 0 20 16 37 37 37z m0-67c16 0 29 14 29 30 0 16-13 30-29 30-17 0-30-14-30-30 0-16 13-30 30-30z m0 44c7 0 14-6 14-14 0-8-7-14-14-14s-15 6-15 14c0 8 7 14 15 14z m694 76h-230c-5 0-8-4-8-8v-374c0-5 3-8 8-8h230c5 0 8 3 8 8v374c0 4-3 8-8 8z m-7-375h-216v258h36c4 0 8 4 8 8s-4 7-8 7h-36v11h36c4 0 8 3 8 7s-4 8-8 8h-36v10h36c4 0 8 3 8 8 0 4-4 7-8 7h-36v35h216v-359z m-209 106c0-56 45-102 101-102 56 0 101 46 101 102 0 55-45 101-101 101-56 0-101-46-101-101z m187 0c0-48-39-86-86-86-47 0-86 38-86 86 0 47 39 86 86 86 47 0 86-39 86-86z m-121 0c0-20 16-35 35-35 19 0 35 15 35 35 0 19-16 35-35 35-19 0-35-16-35-35z m55 0c0-11-9-20-20-20-11 0-20 9-20 20 0 10 9 19 20 19 11 0 20-9 20-19z m-17 127c28 0 52 23 52 52 0 29-24 52-52 52-29 0-53-23-53-52 0-29 24-52 53-52z m0 89c20 0 36-17 36-37 0-20-16-37-36-37s-37 17-37 37c0 20 16 37 37 37z m0-67c16 0 29 14 29 30 0 16-13 30-29 30-17 0-30-14-30-30 0-16 13-30 30-30z m0 44c7 0 14-6 14-14 0-8-7-14-14-14-8 0-15 6-15 14 0 8 7 14 15 14z m-153-198h-284c-4 0-8-4-8-8v-100c0-5 4-8 8-8h284c4 0 8 3 8 8v100c0 4-4 8-8 8z m-8-101h-268v85h268v-85z m-215 35h162c4 0 8 3 8 7s-4 8-8 8h-162c-4 0-7-3-7-8s3-7 7-7z" horiz-adv-x="1000" />
<glyph glyph-name="11" unicode="&#xe80a;" d="m584 618h-168c-41 0-74-33-74-74v-388c0-41 33-74 74-74h168c41 0 74 33 74 74v388c0 41-33 74-74 74z m59-462c0-32-26-59-59-59h-168c-33 0-59 27-59 59v388c0 33 26 59 59 59h168c33 0 59-26 59-59v-388z m-37 392h-212c-5 0-8-3-8-7v-213c0-4 3-8 8-8h212c5 0 8 4 8 8v213c0 4-3 7-8 7z m-7-213h-198v198h198v-198z m-99-57c-38 0-68-31-68-69 0-37 30-68 68-68 38 0 68 31 68 68 0 38-30 69-68 69z m0-122c-29 0-53 24-53 53s24 53 53 53c29 0 53-23 53-53s-24-53-53-53z m-49 413h99c4 0 7 3 7 8s-3 7-7 7h-99c-4 0-7-3-7-7s3-8 7-8z m9-195c1 0 2-1 4-1s2 1 4 1l87 51c3 1 4 4 4 7s-1 5-4 6l-87 51c-3 1-6 1-8 0s-4-4-4-7v-101c0-3 2-5 4-7z m11 95l65-37-65-38v75z" horiz-adv-x="1000" />
<glyph glyph-name="12" unicode="&#xe80b;" d="m730 455c-2 4-6 5-10 4l-7-3c-28 90-112 155-211 155-100 0-184-66-212-156l-6 2c-4 2-8 0-10-4s1-9 5-10l8-3c-4-16-6-33-6-50 0-17 2-34 6-51-4-11-5-27-2-37l7-31c-18-17-23-40-13-65 15-40 70-82 157-92 3-15 16-26 32-26h56c18 0 32 14 32 31s-14 32-32 32h-56c-14 0-26-9-30-22-81 10-131 47-145 83-6 15-5 29 3 40 3-10 10-23 18-30 17-13 38-20 59-20 7 0 14 1 21 2 4 1 8 2 12 4 11 4 15 19 12 31l-29 131c-3 11-11 23-23 23 0 0-1 0-1 0-4 0-8-1-12-2-22-5-41-16-54-33-2 10-3 21-3 32 0 15 2 30 5 44l7-2c3-2 7 0 9 3 35 71 106 115 185 115 79 0 150-44 185-115 1-2 4-4 6-4 1 0 3 0 4 1l6 3c3-15 5-29 5-45 0-11-1-22-3-32-14 17-32 28-54 33 0 0 0 0 0 0 0 0 0 0 0 0-4 1-8 2-12 2-1 0-1 0-2 0-11 0-20-12-22-23l-29-131c-3-12 1-27 12-31 3-2 8-3 12-4 7-1 14-2 21-2 0 0 0 0 0 0 21 0 42 7 58 20 10 8 17 23 20 34l10 46c2 10 2 26-2 37 4 17 6 34 6 51 0 18-2 35-6 51l9 4c4 1 5 6 4 10z m-262-319h56c9 0 16-7 16-17s-7-16-16-16h-56c-9 0-17 7-17 16s8 17 17 17z m-102 242c2 0 6-5 8-11l29-131c1-7-1-13-2-14-1 0-2 0-3-1l-35 156c1 0 2 1 3 1z m-18-4l35-156c-21-3-43 3-59 16-6 5-12 17-14 26l-10 45c-2 9-2 22 2 29 9 19 26 33 46 40z m253-138l29 131c1 6 6 11 7 11 1 0 2-1 3-1l-34-156c-1 1-2 1-3 1-2 1-4 7-2 14z m103 69l-10-45c-2-9-8-21-14-26-14-11-32-17-49-17 0 0 0 0 0 0-4 0-7 1-10 1l34 156c21-7 37-21 47-40 4-7 4-20 2-29z m-7 144c-39 72-113 117-195 117-83 0-157-45-195-118l-2 1c25 85 104 147 197 147 93 0 171-62 197-146l-2-1z" horiz-adv-x="1000" />
<glyph glyph-name="13" unicode="&#xe80c;" d="m658 387h-134v28c0 13 10 23 23 23h149c21 0 38 17 38 38v23c0 21-17 38-38 38h-308c-4 20-21 34-41 34h-77c-4 0-7-3-7-7v-6h-43c-4 0-8-4-8-8v-43c0-4 4-7 8-7h43v-7c0-4 3-7 7-7h77c21 0 39 15 42 36h307c13 0 23-10 23-23v-23c0-12-10-23-23-23h-149c-21 0-39-17-39-38v-28h-133c-30 0-58-10-81-28-31-25-49-62-49-102 0-71 58-130 130-130 56 0 106 36 123 90 2 5 7 9 11 9h15c4 0 9-4 11-9 17-54 67-90 123-90 62 0 116 44 128 105 1 8 2 17 2 25 0 72-58 130-130 130z m-430 128v27h35v-27h-35z m119-14h-69v6 43 6h69c15 0 27-12 27-27 0-16-12-28-27-28z m424-266c-11-53-58-92-113-92-50 0-93 32-109 79-3 11-14 19-25 19h-15c-11 0-22-8-25-19-16-47-59-79-109-79-63 0-115 51-115 114 0 35 16 68 44 90 20 16 45 25 71 25h283c63 0 115-52 115-115 0-7-1-15-2-22z m-337 32h-52v52c0 4-4 7-8 7-4 0-8-3-8-7v-52h-52c-4 0-7-4-7-8s3-8 7-8h52v-52c0-4 4-7 8-7 4 0 8 3 8 7v52h52c4 0 7 4 7 8s-3 8-7 8z m234 59c-5 0-8-3-8-7v-17c0-4 3-8 8-8s7 4 7 8v17c0 4-3 7-7 7z m0-103c-5 0-8-3-8-7v-17c0-4 3-7 8-7s7 3 7 7v17c0 4-3 7-7 7z m-43 44h-17c-4 0-8-4-8-8s4-8 8-8h17c4 0 7 4 7 8s-3 8-7 8z m102 0h-16c-5 0-8-4-8-8s3-8 8-8h16c5 0 8 4 8 8s-3 8-8 8z" horiz-adv-x="1000" />
<glyph glyph-name="14" unicode="&#xe80d;" d="m617 638h-235c-26 0-48-21-48-47v-482c0-26 22-47 48-47h235c27 0 48 21 48 47v482c0 26-21 47-48 47z m33-529c0-17-15-32-33-32h-235c-18 0-32 15-32 32v45h300v-45z m0 60h-300v384h300v-384z m0 399h-300v23c0 17 14 32 32 32h235c18 0 33-15 33-32v-23z m-153-486c18 0 32 15 32 32 0 18-14 32-32 32-17 0-32-14-32-32 0-17 15-32 32-32z m0 49c10 0 17-7 17-17 0-9-7-16-17-16-9 0-16 7-16 16 0 10 7 17 16 17z m-107 94l227 146c4 3 5 7 2 11-2 4-7 5-10 2l-227-146c-3-2-4-7-2-11 2-3 7-4 10-2z m37 70l50 33c3 2 4 7 2 10-2 4-7 5-11 2l-50-32c-3-2-4-7-2-11 2-3 7-4 11-2z" horiz-adv-x="1000" />
<glyph glyph-name="15" unicode="&#xe80e;" d="m608 607h-219c-13 0-24-11-24-25 0-13 11-24 24-24h219c14 0 25 11 25 24 0 14-11 25-25 25z m0-34h-219c-5 0-9 4-9 9 0 6 4 10 9 10h219c6 0 10-4 10-10 0-5-4-9-10-9z m-82-402h-148c-5 0-8-3-8-7 0-5 3-8 8-8h148c5 0 8 3 8 8 0 4-3 7-8 7z m0-28h-148c-5 0-8-3-8-7 0-4 3-8 8-8h148c5 0 8 4 8 8 0 4-3 7-8 7z m138 378v15h0v55c0 24-20 43-44 43h-242c-24 0-44-19-44-43v-273-18-22-18-28-124c0-24 20-44 44-44h242c24 0 44 20 44 44v292h0v15h0v106h0z m-15 7v-120-300c0-16-13-28-29-28h-242c-15 0-28 12-28 28v161c0 0 0 0 0 0v17c0 0 0 0 0 0v5c0 0 0 0 0 0v17c0 0 0 0 0 0v283c0 15 13 28 28 28h242c16 0 29-13 29-28v-63z m-50-208c-18 0-33-14-33-32 0-18 15-32 33-32 17 0 32 14 32 32 0 18-15 32-32 32z m0-49c-10 0-17 8-17 17 0 9 7 17 17 17 9 0 16-8 16-17 0-9-7-17-16-17z" horiz-adv-x="1000" />
<glyph glyph-name="16" unicode="&#xe80f;" d="m629 709h-258c-34 0-60-27-60-60v-363-236c0-33 26-60 60-60h258c33 0 60 27 60 60v236 363c0 33-27 60-60 60z m44-659c0-25-20-45-44-45h-258c-25 0-45 20-45 45v228h347v-228z m0 243h-347v356c0 24 20 44 45 44h258c24 0 44-20 44-44v-356z m-325 191c-4 0-8-3-8-7s4-8 8-8c6 0 11-5 11-11v-119c0-6-5-11-11-11-4 0-8-3-8-7s4-8 8-8c14 0 26 12 26 26v119c0 15-12 26-26 26z m0-305c-4 0-8-3-8-7s4-8 8-8c14 0 26 12 26 26v50c0 14-12 26-26 26-4 0-8-4-8-8s4-8 8-8c6 0 11-5 11-10v-50c0-6-5-11-11-11z m185 432h-67c-4 0-8-4-8-8v-90c0-4 4-7 8-7h67c4 0 8 3 8 7v90c0 4-4 8-8 8z m-8-90h-51v74h51v-74z" horiz-adv-x="1000" />
<glyph glyph-name="17" unicode="&#xe810;" d="m629 660h-259c-42 0-76-35-76-77v-467c0-1 0-1 0-2 0-1 0-1 0-1 0 0 0-1 0-1 2-40 35-72 76-72h259c40 0 74 32 76 72 0 0 0 1 0 1 0 0 0 0 0 1 0 1 0 1 0 2v467c0 42-34 77-76 77z m-320-539v359h381v-359h-381z m61 523h259c33 0 61-27 61-61v-87h-381v87c0 34 27 61 61 61z m259-589h-259c-30 0-55 22-60 50h379c-5-28-30-50-60-50z m-264 476h135c15 0 27 13 27 28 0 15-12 27-27 27h-135c-15 0-27-12-27-27 0-15 12-28 27-28z m0 39h135c6 0 12-5 12-11 0-7-6-12-12-12h-135c-7 0-12 5-12 12 0 6 5 11 12 11z m250-54c23 0 43 19 43 43 0 23-20 43-43 43s-43-20-43-43c0-24 19-43 43-43z m0 70c15 0 27-12 27-27s-12-28-27-28-28 12-28 28 13 27 28 27z m38-275c0 83-68 151-151 151-82 0-150-68-150-151 0-82 68-150 150-150 29 0 56 8 78 22 7-5 15-8 23-8 10 0 19 3 26 10 13 14 14 35 2 49 14 23 22 49 22 77z m-285 0c0 75 60 135 134 135 75 0 135-60 135-135 0-23-6-46-17-65l-13 13c8 15 13 33 13 52 0 65-53 118-118 118-64 0-117-53-117-118 0-64 53-117 117-117 20 0 38 5 54 13l13-13c-20-11-42-17-67-17-74 0-134 60-134 134z m182-46c-7-7-11-16-11-26 0-7 2-14 6-20-13-6-27-9-43-9-56 0-101 45-101 101 0 57 45 102 101 102 57 0 102-45 102-102 0-15-3-29-9-42-6 4-13 6-20 6-9 0-19-4-25-10z m68-69c-8-8-22-8-29 0l-29 28c-3 4-6 9-6 15s3 11 6 15c4 4 10 6 15 6 6 0 11-2 15-6l28-28c8-9 8-22 0-30z" horiz-adv-x="1000" />
<glyph glyph-name="18" unicode="&#xe811;" d="m629 645h-258c-42 0-77-35-77-77v-467c0-42 35-76 77-76h258c43 0 77 34 77 76v467c0 42-34 77-77 77z m-319-470v313h380v-313h-380z m61 454h258c34 0 62-27 62-61v-64h-381v64c0 34 27 61 61 61z m258-589h-258c-34 0-61 28-61 61v59h380v-59c0-33-27-61-61-61z m-9 417h-239c-30 0-55-25-55-55v-146c0-30 25-54 55-54h239c30 0 54 24 54 54v146c0 30-24 55-54 55z m39-201c0-21-18-39-39-39h-239c-22 0-40 18-40 39v146c0 22 18 39 40 39h239c21 0 39-17 39-39v-146z m-24 34h-269c-5 0-8-4-8-8s3-8 8-8h269c4 0 7 4 7 8s-3 8-7 8z m-259 235c17 0 32 15 32 32 0 17-15 32-32 32-18 0-32-15-32-32 0-17 14-32 32-32z m0 48c9 0 16-7 16-16 0-9-7-16-16-16-9 0-16 7-16 16 0 9 7 16 16 16z m83-48c17 0 31 15 31 32 0 17-14 32-31 32-18 0-32-15-32-32 0-17 14-32 32-32z m0 48c9 0 16-7 16-16 0-9-7-16-16-16-9 0-17 7-17 16 0 9 8 16 17 16z m83-48c17 0 31 15 31 32 0 17-14 32-31 32-18 0-32-15-32-32 0-17 14-32 32-32z m0 48c9 0 16-7 16-16 0-9-7-16-16-16s-17 7-17 16c0 9 8 16 17 16z m82-48c18 0 32 15 32 32 0 17-14 32-32 32-17 0-31-15-31-32 0-17 14-32 31-32z m0 48c9 0 17-7 17-16 0-9-8-16-17-16s-16 7-16 16c0 9 7 16 16 16z m-243 85h93c5 0 8 4 8 8s-3 8-8 8h-93c-4 0-8-4-8-8s4-8 8-8z m185 0h54c4 0 8 4 8 8s-4 8-8 8h-54c-4 0-8-4-8-8s4-8 8-8z" horiz-adv-x="1000" />
<glyph glyph-name="19" unicode="&#xe812;" d="m804 186h-606c-5 0-8-3-8-7s3-8 8-8h606c4 0 8 3 8 8s-4 7-8 7z m-608 22h597c2 0 4 1 5 3 2 1 2 4 2 6l-19 139c-1 1-1 3-2 4l-146 146c-13 13-38 23-56 23h-307c-17 0-23-7-25-11-1-4-2-11 6-19l16-16c13-13 37-24 56-25l203-12c14-1 29-13 33-25l15-44c-14 0-28-1-42-3-11 11-27 18-44 18-23 0-44-13-55-32-119-26-210-77-244-141-1-2-1-5 1-7 1-2 3-4 6-4z m292 168c28 0 50-22 50-49 0-27-22-49-50-49-27 0-49 22-49 49 0 27 22 49 49 49z m-62-34c-2-5-2-10-2-15 0-36 29-65 64-65 36 0 65 29 65 65 0 12-3 23-9 33 13 1 27 2 40 2 3 0 5 1 7 3 1 2 1 5 1 7l-19 54c-6 18-26 34-46 35l-204 12c-14 1-35 11-45 21l-17 16c0 1-1 2-1 2 2 1 5 2 10 2h307c14 0 35-9 45-19l144-144 18-128h-574c34 53 114 95 216 119z m62-53c21 0 38 17 38 38 0 21-17 38-38 38-21 0-38-17-38-38 0-21 17-38 38-38z m0 61c13 0 23-11 23-23 0-13-10-23-23-23-12 0-22 10-22 23 0 12 10 23 22 23z m254-62h-118c-4 0-8-4-8-8s4-7 8-7h118c4 0 8 3 8 7s-4 8-8 8z m0-23h-118c-4 0-8-4-8-8s4-8 8-8h118c4 0 8 4 8 8s-4 8-8 8z" horiz-adv-x="1000" />
<glyph glyph-name="20" unicode="&#xe813;" d="m773 508c-6 7-15 11-25 11h-93c-2 27-13 52-32 72-26 28-65 44-107 44h-50c-54 0-103-28-126-71-91-30-120-71-121-73-2-3-2-6 0-9 1-2 125-187 135-329l3-78c0-5 3-8 8-8h256c4 0 7 3 8 7 2 33 4 68 7 103l46 20c17 9 34 31 39 50l58 224c3 14 1 27-6 37z m-307 112h50c38 0 73-14 96-40 5-4 8-9 12-15h-265c21 34 62 55 107 55z m148-538h-242l-2 72c-11 135-115 301-136 332 10 10 42 41 113 64h285c6-15 9-30 8-46 0-2-14-247-26-422z m150 392l-58-224c-4-14-18-32-30-39l-39-17c9 152 18 307 18 309 0 1 0 1 0 1h93c6 0 10-2 13-6 4-5 5-14 3-24z m-301 185h59c4 0 7 3 7 7 0 5-3 8-7 8h-59c-5 0-8-3-8-8 0-4 3-7 8-7z m174-619h-289c-5 0-8-3-8-8s3-7 8-7h289c4 0 8 3 8 7s-4 8-8 8z m-194 405c5 0 8 3 8 8s-3 7-8 7h-23v30c0 4-4 8-8 8s-7-4-7-8v-330c0-4 3-8 7-8s8 4 8 8v89h23c5 0 8 3 8 7s-3 8-8 8h-23v83h23c5 0 8 3 8 8s-3 7-8 7h-23v83h23z" horiz-adv-x="1000" />
<glyph glyph-name="21" unicode="&#xe814;" d="m500 641c-92 0-167-75-167-167v-249c0-93 75-168 167-168s168 75 168 168v249c0 92-75 167-168 167z m0-123c7 0 12-6 12-12v-104c0-7-5-12-12-12s-12 5-12 12v104c0 6 6 12 12 12z m0-446c-84 0-152 69-152 153h0v249h0c0 82 65 149 146 152-1-1-1-3-1-5v-89c-12-3-20-14-20-26v-104c0-15 12-27 27-27s27 12 27 27v104c0 12-8 23-19 26v89c0 2-1 4-2 5 82-3 147-70 147-152h-1v-249h1c0-84-69-153-153-153z" horiz-adv-x="1000" />
<glyph glyph-name="22" unicode="&#xe815;" d="m316 386c-56 0-101-46-101-102 0-56 45-101 101-101 56 0 101 45 101 101 0 56-45 102-101 102z m0-188c-48 0-86 39-86 86 0 48 38 86 86 86 47 0 86-38 86-86 0-47-39-86-86-86z m0 121c-20 0-35-15-35-35s15-35 35-35c19 0 35 16 35 35s-16 35-35 35z m0-54c-11 0-20 8-20 19 0 11 9 20 20 20 11 0 19-9 19-20 0-11-8-19-19-19z m2 146c29 0 53 24 53 53 0 28-24 52-53 52-29 0-52-24-52-52 0-29 23-53 52-53z m0 90c21 0 37-17 37-37 0-21-16-37-37-37-20 0-37 16-37 37 0 20 17 37 37 37z m0-67c17 0 30 13 30 30 0 16-13 29-30 29-16 0-29-13-29-29 0-17 13-30 29-30z m0 44c8 0 15-6 15-14 0-8-7-15-15-15-8 0-14 7-14 15 0 8 6 14 14 14z m163 113c0 24-20 43-44 43h-242c-25 0-44-19-44-43v-273-18-22-18-27-125c0-24 19-43 44-43h242c24 0 44 19 44 43v292h0v15h0v106h0v15h0v55z m-16-63v-120-300c0-15-13-28-28-28h-242c-16 0-29 13-29 28v161c0 0 0 0 0 0v17c0 0 0 0 0 0v6c0 0 0 0 0 0v17c0 0 0 0 0 0v282c0 15 13 28 29 28h242c15 0 28-13 28-28v-63z m219-142c-56 0-102-46-102-102 0-56 46-101 102-101 55 0 101 45 101 101 0 56-46 102-101 102z m0-188c-48 0-86 39-86 86 0 48 38 86 86 86 47 0 85-38 85-86 0-47-38-86-85-86z m0 121c-20 0-36-15-36-35s16-35 36-35c19 0 35 16 35 35s-16 35-35 35z m0-54c-11 0-20 8-20 19 0 11 9 20 20 20 10 0 19-9 19-20 0-11-9-19-19-19z m2 146c29 0 52 24 52 53 0 28-23 52-52 52-29 0-52-24-52-52 0-29 23-53 52-53z m0 90c20 0 37-17 37-37 0-21-17-37-37-37-20 0-37 16-37 37 0 20 17 37 37 37z m0-67c16 0 30 13 30 30 0 16-14 29-30 29-16 0-30-13-30-29 0-17 14-30 30-30z m0 44c8 0 14-6 14-14 0-8-6-15-14-15-8 0-14 7-14 15 0 8 6 14 14 14z m162 43v15h0v55c0 24-19 43-44 43h-242c-24 0-43-19-43-43v-273-18-22-18-27-125c0-24 19-43 43-43h242c25 0 44 19 44 43v292h0v15h0v106h0z m-15 7v-120-300c0-15-13-28-29-28h-242c-15 0-28 13-28 28v161c0 0 0 0 0 0v17c0 0 0 0 0 0v6c0 0 0 0 0 0v17c0 0 0 0 0 0v282c0 15 13 28 28 28h242c16 0 29-13 29-28v-63z" horiz-adv-x="1000" />
</font>
</defs>
</svg>
